<svg width="24" height="24" viewBox="0 0 24 24" fill="none" xmlns="http://www.w3.org/2000/svg">
<path d="M6.00005 20V6.41406L3.70708 8.70703C3.31655 9.09756 2.68354 9.09756 2.29302 8.70703C1.90249 8.31651 1.90249 7.68349 2.29302 7.29297L6.29302 3.29297L6.36919 3.22461C6.76196 2.90426 7.34096 2.92685 7.70708 3.29297L11.7071 7.29297C12.0976 7.68349 12.0976 8.31651 11.7071 8.70703C11.3166 9.09756 10.6835 9.09756 10.293 8.70703L8.00005 6.41406V20C8.00005 20.5523 7.55233 21 7.00005 21C6.44776 21 6.00005 20.5523 6.00005 20ZM16 4C16 3.44772 16.4478 3 17 3C17.5523 3 18 3.44772 18 4V17.5859L20.293 15.293C20.6835 14.9024 21.3166 14.9024 21.7071 15.293C22.0976 15.6835 22.0976 16.3165 21.7071 16.707L17.7071 20.707C17.3166 21.0976 16.6835 21.0976 16.293 20.707L12.293 16.707C11.9025 16.3165 11.9025 15.6835 12.293 15.293C12.6835 14.9024 13.3166 14.9024 13.7071 15.293L16 17.5859V4Z" fill="black"/>
</svg>
