<svg width="24" height="24" viewBox="0 0 24 24" fill="none" xmlns="http://www.w3.org/2000/svg">
<path d="M10 20C10 19.4477 9.55228 19 9 19C8.44772 19 8 19.4477 8 20C8 20.5523 8.44772 21 9 21C9.55228 21 10 20.5523 10 20ZM19 20C19 19.4477 18.5523 19 18 19C17.4477 19 17 19.4477 17 20C17 20.5523 17.4477 21 18 21C18.5523 21 19 20.5523 19 20ZM18 7V13H20V7H18ZM13 13H16V7H13V13ZM21 20C21 21.6569 19.6569 23 18 23C16.3431 23 15 21.6569 15 20C15 19.649 15.0631 19.3131 15.1738 19H11.8262C11.9369 19.3131 12 19.649 12 20C12 21.6569 10.6569 23 9 23C7.34315 23 6 21.6569 6 20C6 19.649 6.06306 19.3131 6.17383 19H6C5.20435 19 4.44151 18.6837 3.87891 18.1211C3.3163 17.5585 3 16.7956 3 16V7C3 6.73478 2.89457 6.4805 2.70703 6.29297C2.5195 6.10543 2.26522 6 2 6C1.44772 6 1 5.55228 1 5C1 4.44772 1.44772 4 2 4C2.79565 4 3.55848 4.3163 4.12109 4.87891C4.6837 5.44152 5 6.20435 5 7V16L5.00488 16.0986C5.02757 16.3276 5.12883 16.5429 5.29297 16.707C5.48051 16.8946 5.73478 17 6 17H22C22.5523 17 23 17.4477 23 18C23 18.5523 22.5523 19 22 19H20.8262C20.9369 19.3131 21 19.649 21 20ZM9 13H11V7H9V13ZM16 4C16 3.73478 15.8946 3.48051 15.707 3.29297C15.5195 3.10543 15.2652 3 15 3H14C13.7348 3 13.4805 3.10543 13.293 3.29297C13.1054 3.48051 13 3.73478 13 4V5H16V4ZM18 5H20C21.1046 5 22 5.89543 22 7V13C22 14.1046 21.1046 15 20 15H9C7.89543 15 7 14.1046 7 13V7C7 5.89543 7.89543 5 9 5H11V4C11 3.20435 11.3163 2.44151 11.8789 1.87891C12.4415 1.3163 13.2044 1 14 1H15C15.7956 1 16.5585 1.3163 17.1211 1.87891C17.6837 2.44151 18 3.20435 18 4V5Z" fill="black"/>
</svg>
