<svg width="24" height="24" viewBox="0 0 24 24" fill="none" xmlns="http://www.w3.org/2000/svg">
<path d="M16 4C15.2044 4 14.4415 4.3163 13.8789 4.87891C13.3163 5.44152 13 6.20435 13 7V17.5371C13.603 17.1889 14.2916 17 15 17H21V4H16ZM3 17H9C9.70844 17 10.397 17.1889 11 17.5371V7C11 6.20435 10.6837 5.44152 10.1211 4.87891C9.55849 4.3163 8.79565 4 8 4H3V17ZM23 17C23 17.5304 22.7891 18.039 22.4141 18.4141C22.039 18.7891 21.5304 19 21 19H15C14.4696 19 13.961 19.2109 13.5859 19.5859C13.2109 19.961 13 20.4696 13 21C13 21.5523 12.5523 22 12 22C11.4477 22 11 21.5523 11 21C11 20.4696 10.7891 19.961 10.4141 19.5859C10.0858 19.2577 9.65526 19.0551 9.19727 19.0098L9 19H3C2.46957 19 1.96101 18.7891 1.58594 18.4141C1.21086 18.039 1 17.5304 1 17V4C1 3.46957 1.21086 2.96101 1.58594 2.58594C1.96101 2.21086 2.46957 2 3 2H8C9.32608 2 10.5975 2.52716 11.5352 3.46484C11.7036 3.63332 11.8587 3.81256 12 4.00098C12.1413 3.81256 12.2964 3.63332 12.4648 3.46484C13.4025 2.52716 14.6739 2 16 2H21C21.5304 2 22.039 2.21086 22.4141 2.58594C22.7891 2.96101 23 3.46957 23 4V17Z" fill="black"/>
</svg>
