<svg width="24" height="24" viewBox="0 0 24 24" fill="none" xmlns="http://www.w3.org/2000/svg">
<path d="M21 14.7529C18.4429 16.1147 15.6068 16.8837 12.7021 16.9902L12 17.0029C8.85153 17.0029 5.7628 16.2243 3 14.7529V18C3 18.5523 3.44772 19 4 19H20C20.5523 19 21 18.5523 21 18V14.7529ZM12.0098 11C12.5621 11 13.0098 11.4477 13.0098 12C13.0098 12.5523 12.5621 13 12.0098 13H12C11.4477 13 11 12.5523 11 12C11 11.4477 11.4477 11 12 11H12.0098ZM21 8C21 7.44771 20.5523 7 20 7H4C3.44772 7 3 7.44772 3 8V12.4492C5.70289 14.1159 8.81762 15.0029 12 15.0029L12.6289 14.9922C15.5917 14.8835 18.4754 14.0059 21 12.4492V8ZM15 4C15 3.73478 14.8946 3.48051 14.707 3.29297C14.5195 3.10543 14.2652 3 14 3H10C9.73478 3 9.4805 3.10543 9.29297 3.29297C9.10543 3.48051 9 3.73478 9 4V5H15V4ZM17 5H20C21.6569 5 23 6.34315 23 8V18C23 19.6569 21.6569 21 20 21H4C2.34315 21 1 19.6569 1 18V8C1 6.34315 2.34315 5 4 5H7V4C7 3.20435 7.3163 2.44151 7.87891 1.87891C8.44152 1.3163 9.20435 1 10 1H14C14.7956 1 15.5585 1.3163 16.1211 1.87891C16.6837 2.44151 17 3.20435 17 4V5Z" fill="black"/>
</svg>
