<svg width="24" height="24" viewBox="0 0 24 24" fill="none" xmlns="http://www.w3.org/2000/svg">
<path d="M20 12.0005C20 11.4482 19.5523 11.0005 19 11.0005H5C4.44772 11.0005 4 11.4482 4 12.0005V16.0005C4.00024 16.5526 4.44787 17.0005 5 17.0005H19C19.5521 17.0005 19.9998 16.5526 20 16.0005V12.0005ZM7.00977 13.0005C7.56205 13.0005 8.00977 13.4482 8.00977 14.0005C8.00952 14.5526 7.5619 15.0005 7.00977 15.0005H7C6.44787 15.0005 6.00024 14.5526 6 14.0005C6 13.4482 6.44772 13.0005 7 13.0005H7.00977ZM17.0098 13.0005C17.5621 13.0005 18.0098 13.4482 18.0098 14.0005C18.0095 14.5526 17.5619 15.0005 17.0098 15.0005H17C16.4479 15.0005 16.0002 14.5526 16 14.0005C16 13.4482 16.4477 13.0005 17 13.0005H17.0098ZM8.37695 5.99951C8.17324 5.99485 7.97276 6.05322 7.80273 6.16553C7.63284 6.27784 7.50139 6.4393 7.42578 6.62842L6.47754 9.00049H17.5156L16.5732 6.67529C16.5698 6.66689 16.5667 6.6584 16.5635 6.6499C16.4927 6.46057 16.3657 6.29719 16.2002 6.18115C16.0376 6.06719 15.8449 6.00348 15.6465 5.99951V6.00049H8.40039C8.39274 6.00049 8.38461 5.99969 8.37695 5.99951ZM22 16.0005C21.9998 17.306 21.1643 18.4125 20 18.8247V20.0005C19.9998 20.5526 19.5521 21.0005 19 21.0005C18.4479 21.0005 18.0002 20.5526 18 20.0005V19.0005H6V20.0005C5.99976 20.5526 5.55213 21.0005 5 21.0005C4.44787 21.0005 4.00024 20.5526 4 20.0005V18.8247C2.8357 18.4125 2.00019 17.306 2 16.0005V12.0005C2 11.0227 2.46932 10.1556 3.19336 9.60791L2.29297 8.70752C1.90244 8.317 1.90244 7.683 2.29297 7.29248C2.68343 6.90231 3.31657 6.90231 3.70703 7.29248L4.63379 8.21924L5.56836 5.88525C5.7953 5.31789 6.19037 4.83346 6.7002 4.49658C7.20408 4.16375 7.79693 3.99214 8.40039 4.00146V4.00049H15.6562C16.2623 4.00651 16.8524 4.19553 17.3486 4.54346C17.8374 4.8862 18.2118 5.36743 18.4258 5.92432L19.3594 8.2251L20.293 7.29248C20.6834 6.90231 21.3166 6.90231 21.707 7.29248C22.0976 7.683 22.0976 8.317 21.707 8.70752L20.8057 9.60791C21.5301 10.1556 22 11.0224 22 12.0005V16.0005Z" fill="black"/>
</svg>
