<svg width="24" height="24" viewBox="0 0 24 24" fill="none" xmlns="http://www.w3.org/2000/svg">
<g clip-path="url(#clip0_3107_4853)">
<path d="M1.9895 12.6467C1.9895 12.2528 2.0663 11.8623 2.21704 11.4983C2.36781 11.1343 2.58887 10.8032 2.86743 10.5247C3.14601 10.2461 3.47709 10.0251 3.84106 9.87427C4.20509 9.72348 4.59549 9.64575 4.9895 9.64575C5.38352 9.64575 5.77391 9.72348 6.13794 9.87427C6.50192 10.0251 6.83299 10.2461 7.11157 10.5247L9.58521 12.9993L12.9993 9.58521L10.5247 7.11157C10.2461 6.83299 10.0251 6.50192 9.87427 6.13794C9.72348 5.77391 9.64575 5.38352 9.64575 4.9895C9.64575 4.59549 9.72348 4.20509 9.87427 3.84106C10.0251 3.47709 10.2461 3.14601 10.5247 2.86743C10.8032 2.58887 11.1343 2.36781 11.4983 2.21704C11.8623 2.0663 12.2528 1.9895 12.6467 1.9895C13.0407 1.98953 13.4312 2.06628 13.7952 2.21704C14.0603 2.32688 14.307 2.47509 14.5295 2.65454C14.6758 2.34313 14.8734 2.05478 15.1213 1.80688C15.684 1.24443 16.4478 0.928814 17.2434 0.928955C18.0389 0.929194 18.8021 1.24523 19.3645 1.80786L20.0706 2.51392L20.7932 1.79321C21.1837 1.40269 21.8168 1.40269 22.2073 1.79321C22.5976 2.18376 22.5977 2.81683 22.2073 3.20728L21.4846 3.92896L22.1917 4.63599C22.4702 4.91441 22.6912 5.24485 22.842 5.60864C22.9929 5.9726 23.0715 6.36311 23.0715 6.75708C23.0716 7.15102 22.9937 7.54154 22.843 7.90552C22.6923 8.26935 22.471 8.59965 22.1926 8.87817C21.9467 9.1242 21.6583 9.32146 21.344 9.46899C21.773 10.0002 22.011 10.6646 22.011 11.3538C22.0109 12.1494 21.6946 12.9122 21.1321 13.4749C20.5695 14.0374 19.8066 14.3536 19.011 14.3538C18.2152 14.3538 17.4516 14.0375 16.8889 13.4749L14.4133 10.9993L10.9993 14.4133L13.4749 16.8889C14.0375 17.4516 14.3538 18.2152 14.3538 19.011C14.3536 19.8066 14.0374 20.5695 13.4749 21.1321C12.9122 21.6946 12.1494 22.0109 11.3538 22.011C10.6646 22.011 10.0002 21.773 9.46899 21.344C9.32146 21.6583 9.1242 21.9467 8.87817 22.1926C8.59965 22.471 8.26935 22.6923 7.90552 22.843C7.54154 22.9937 7.15102 23.0716 6.75708 23.0715C5.96142 23.0714 5.19851 22.7544 4.63599 22.1917L3.92896 21.4846L3.20728 22.2073C2.81683 22.5977 2.18376 22.5976 1.79321 22.2073C1.40269 21.8168 1.40269 21.1837 1.79321 20.7932L2.51392 20.0706L1.80786 19.3645C1.24523 18.8021 0.929194 18.0389 0.928955 17.2434C0.928814 16.4478 1.24443 15.684 1.80688 15.1213C2.05478 14.8734 2.34313 14.6758 2.65454 14.5295C2.47509 14.307 2.32688 14.0603 2.21704 13.7952C2.06628 13.4312 1.98953 13.0407 1.9895 12.6467ZM3.9895 12.6467C3.98953 12.778 4.01543 12.9082 4.06567 13.0295C4.11595 13.1508 4.18966 13.2609 4.28247 13.3538H4.28149L6.05005 15.1204C6.44063 15.5108 6.44047 16.1448 6.05005 16.5354C5.6596 16.9257 5.02649 16.9257 4.63599 16.5354C4.44844 16.3479 4.19414 16.2424 3.92896 16.2424C3.66379 16.2425 3.40942 16.3479 3.22192 16.5354C3.03447 16.7229 2.92897 16.9773 2.92896 17.2424C2.929 17.5076 3.03446 17.762 3.22192 17.9495L6.05005 20.7776C6.2375 20.9651 6.49194 21.0714 6.75708 21.0715C6.88832 21.0716 7.01863 21.0455 7.13989 20.9954C7.26108 20.9452 7.37131 20.8712 7.46411 20.7786C7.55685 20.6859 7.63063 20.5754 7.68091 20.4543C7.73114 20.3331 7.75701 20.2027 7.75708 20.0715C7.7571 19.9403 7.73202 19.81 7.68188 19.6887C7.63165 19.5674 7.55793 19.4564 7.46509 19.3635C7.07469 18.9729 7.07449 18.3399 7.46509 17.9495C7.83118 17.5837 8.41034 17.561 8.80298 17.8811L8.87915 17.9504L10.6467 19.718H10.6458C10.8334 19.9056 11.0884 20.011 11.3538 20.011C11.6189 20.0109 11.8732 19.9055 12.0608 19.718C12.2483 19.5305 12.3536 19.2761 12.3538 19.011C12.3538 18.7457 12.2484 18.4906 12.0608 18.303L5.69653 11.9387C5.60371 11.846 5.49352 11.7721 5.37231 11.7219C5.25098 11.6717 5.12083 11.6458 4.9895 11.6458C4.85818 11.6458 4.72802 11.6717 4.60669 11.7219C4.48548 11.7721 4.37529 11.846 4.28247 11.9387C4.18957 12.0316 4.11595 12.1425 4.06567 12.2639C4.01542 12.3853 3.9895 12.5154 3.9895 12.6467ZM11.6458 4.9895C11.6458 5.12083 11.6717 5.25098 11.7219 5.37231C11.7721 5.49352 11.846 5.60371 11.9387 5.69653L18.303 12.0608C18.4906 12.2484 18.7457 12.3538 19.011 12.3538C19.2761 12.3536 19.5305 12.2483 19.718 12.0608C19.9055 11.8732 20.0109 11.6189 20.011 11.3538C20.011 11.0884 19.9056 10.8334 19.718 10.6458L17.9504 8.87915C17.5599 8.48876 17.5592 7.8557 17.9495 7.46509C18.3155 7.09888 18.8955 7.07546 19.2883 7.39575L19.3635 7.46509L19.4377 7.53149C19.6157 7.67707 19.8396 7.75712 20.0715 7.75708C20.2027 7.75701 20.3331 7.73114 20.4543 7.68091C20.5754 7.63063 20.6859 7.55685 20.7786 7.46411C20.8712 7.37131 20.9452 7.26108 20.9954 7.13989C21.0455 7.01863 21.0716 6.88832 21.0715 6.75708C21.0715 6.62584 21.0446 6.49551 20.9944 6.37427C20.9441 6.25313 20.8703 6.14277 20.7776 6.05005L17.9495 3.22192C17.762 3.03446 17.5076 2.929 17.2424 2.92896C16.9773 2.92897 16.7229 3.03447 16.5354 3.22192C16.3479 3.40942 16.2425 3.66379 16.2424 3.92896C16.2424 4.19414 16.3479 4.44844 16.5354 4.63599C16.9257 5.02649 16.9257 5.6596 16.5354 6.05005C16.1448 6.44047 15.5108 6.44063 15.1204 6.05005L13.3538 4.28149C13.261 4.18886 13.1506 4.11588 13.0295 4.06567C12.9082 4.01543 12.778 3.98953 12.6467 3.9895C12.5154 3.9895 12.3853 4.01542 12.2639 4.06567C12.1425 4.11595 12.0316 4.18957 11.9387 4.28247C11.846 4.37529 11.7721 4.48548 11.7219 4.60669C11.6717 4.72802 11.6458 4.85818 11.6458 4.9895Z" fill="black"/>
</g>
<defs>
<clipPath id="clip0_3107_4853">
<rect width="24" height="24" fill="white"/>
</clipPath>
</defs>
</svg>
