<svg width="24" height="24" viewBox="0 0 24 24" fill="none" xmlns="http://www.w3.org/2000/svg">
<path d="M1.65728 7.0606C2.17609 6.8713 2.75019 7.13847 2.9395 7.65728C3.61752 9.51528 4.85018 11.1201 6.47076 12.254C8.09149 13.3878 10.0221 13.9961 12.0001 13.9961C13.978 13.9961 15.9086 13.3878 17.5293 12.254C19.1499 11.1201 20.3826 9.51528 21.0606 7.65728C21.2499 7.13847 21.824 6.8713 22.3428 7.0606C22.8616 7.24992 23.1288 7.82401 22.9395 8.34283C22.2701 10.1771 21.1522 11.8062 19.6973 13.0879L20.7647 14.3555C21.1203 14.7779 21.0667 15.4089 20.6446 15.7647C20.2222 16.1203 19.5912 16.0667 19.2354 15.6446L18.084 14.2764C17.2591 14.7821 16.379 15.1833 15.462 15.4688L15.9766 17.7833C16.0963 18.3223 15.7559 18.8569 15.2168 18.9766C14.6778 19.0963 14.1433 18.7559 14.0235 18.2168L13.5079 15.8956C13.0098 15.9606 12.5064 15.9961 12.0001 15.9961C11.4934 15.9961 10.9897 15.9607 10.4913 15.8956L9.97661 18.2168C9.85685 18.7559 9.32235 19.0963 8.78326 18.9766C8.24416 18.8569 7.90381 18.3223 8.02349 17.7833L8.53716 15.4688C7.62018 15.1832 6.73996 14.7821 5.91509 14.2764L4.7647 15.6446C4.40893 16.0667 3.77786 16.1203 3.35552 15.7647C2.93343 15.4089 2.87982 14.7779 3.2354 14.3555L4.30181 13.0879C2.84721 11.8063 1.72988 10.1769 1.0606 8.34283C0.871302 7.82401 1.13847 7.24992 1.65728 7.0606Z" fill="black"/>
</svg>
