<svg width="24" height="24" viewBox="0 0 24 24" fill="none" xmlns="http://www.w3.org/2000/svg">
<path d="M12.0004 4.00073C14.3273 4.00083 16.6019 4.69188 18.5356 5.98608C20.3484 7.19942 21.7854 8.89166 22.6889 10.8708L22.8627 11.2712L22.8754 11.3044C23.042 11.7534 23.0421 12.2471 22.8754 12.696C22.8713 12.7071 22.8672 12.7183 22.8627 12.7292C21.9755 14.8805 20.4694 16.7201 18.5356 18.0144C16.6019 19.3086 14.3273 19.9997 12.0004 19.9998C9.67343 19.9998 7.39814 19.3087 5.4643 18.0144C3.53051 16.7201 2.02435 14.8804 1.13715 12.7292C1.13265 12.7183 1.12857 12.7071 1.12446 12.696C0.957836 12.2471 0.957891 11.7534 1.12446 11.3044L1.13715 11.2712C2.02433 9.12009 3.53056 7.28037 5.4643 5.98608C7.39814 4.69179 9.67343 4.00073 12.0004 4.00073ZM12.0004 6.00073C10.0695 6.00073 8.18128 6.5742 6.5766 7.64819C4.98216 8.71542 3.73836 10.2293 3.00043 11.9998C3.73835 13.7705 4.98192 15.2849 6.5766 16.3523C8.18128 17.4263 10.0695 17.9998 12.0004 17.9998C13.9312 17.9997 15.8187 17.4262 17.4233 16.3523C19.0179 15.285 20.2605 13.7704 20.9985 11.9998C20.2605 10.2294 19.0176 8.71535 17.4233 7.64819C15.8187 6.57429 13.9312 6.00083 12.0004 6.00073ZM14.0004 11.9998C14.0002 10.8955 13.1047 10 12.0004 9.99976C10.896 9.99976 10.0006 10.8954 10.0004 11.9998C10.0004 13.1043 10.8959 13.9998 12.0004 13.9998C13.1048 13.9995 14.0004 13.1042 14.0004 11.9998ZM16.0004 11.9998C16.0004 14.2087 14.2094 15.9995 12.0004 15.9998C9.79129 15.9998 8.00043 14.2089 8.00043 11.9998C8.00063 9.79078 9.79141 7.99976 12.0004 7.99976C14.2092 8.00001 16.0002 9.79094 16.0004 11.9998Z" fill="black"/>
</svg>
