<svg width="24" height="24" viewBox="0 0 24 24" fill="none" xmlns="http://www.w3.org/2000/svg">
<path d="M18 12.9995H13V19.9995H17C17.2651 19.9995 17.5195 19.8949 17.707 19.7075C17.8946 19.52 18 19.2647 18 18.9995V12.9995ZM6 18.9995C6 19.2647 6.10543 19.52 6.29297 19.7075C6.48048 19.8949 6.73491 19.9995 7 19.9995H11V12.9995H6V18.9995ZM13 8.99951V10.9995H20V8.99951H13ZM4 10.9995H11V8.99951H4V10.9995ZM18 5.49951C17.9999 5.10184 17.8417 4.72017 17.5605 4.43896C17.2793 4.1578 16.8977 3.99951 16.5 3.99951C16.4942 3.99951 16.4882 3.99961 16.4824 3.99951C15.8758 3.989 15.1903 4.27882 14.5303 5.01221C14.0787 5.51407 13.679 6.18899 13.3623 6.99951H16.5C16.8977 6.99951 17.2793 6.84217 17.5605 6.56104C17.8419 6.27973 18 5.89734 18 5.49951ZM6 5.49951C6 5.89734 6.15815 6.27973 6.43945 6.56104C6.72073 6.84217 7.1023 6.99951 7.5 6.99951H10.6377C10.321 6.18899 9.92135 5.51407 9.46973 5.01221C8.80968 4.27882 8.1242 3.989 7.51758 3.99951C7.51177 3.99961 7.50581 3.99951 7.5 3.99951C7.10228 3.99951 6.72074 4.1578 6.43945 4.43896C6.15825 4.72017 6.00012 5.10184 6 5.49951ZM20 5.49951C20 6.02324 19.8823 6.53516 19.6621 6.99951H20C21.1044 6.99951 21.9998 7.89514 22 8.99951V10.9995C22 12.1041 21.1046 12.9995 20 12.9995V18.9995C20 19.7952 19.6837 20.559 19.1211 21.1216C18.5585 21.684 17.7955 21.9995 17 21.9995H7C6.20448 21.9995 5.44149 21.684 4.87891 21.1216C4.3163 20.559 4 19.7952 4 18.9995V12.9995C2.89543 12.9995 2 12.1041 2 10.9995V8.99951C2.00024 7.89514 2.89558 6.99951 4 6.99951H4.33789C4.11769 6.53516 4 6.02324 4 5.49951C4.00012 4.57141 4.36912 3.68118 5.02539 3.0249C5.68175 2.36866 6.57185 1.99951 7.5 1.99951V2.00146C8.81589 1.98437 10.0149 2.62857 10.9561 3.67432C11.35 4.11203 11.6985 4.61899 12 5.17822C12.3015 4.61899 12.65 4.11203 13.0439 3.67432C13.9851 2.62857 15.1841 1.98437 16.5 2.00146V1.99951C17.4282 1.99951 18.3183 2.36866 18.9746 3.0249C19.6309 3.68118 19.9999 4.57141 20 5.49951Z" fill="black"/>
</svg>
