<svg width="24" height="24" viewBox="0 0 24 24" fill="none" xmlns="http://www.w3.org/2000/svg">
<path d="M14.9756 3.16842C16.2565 2.85671 17.602 2.94174 18.833 3.41354C20.0639 3.88535 21.1218 4.7211 21.8662 5.80905C22.6098 6.89597 23.0054 8.18357 23 9.50045L22.9951 9.75533C22.936 11.1927 22.3818 12.4137 21.6562 13.4614C21.6108 13.5485 21.5533 13.628 21.4854 13.6977C20.9293 14.4549 20.2941 15.1204 19.707 15.7075C19.7032 15.7113 19.6992 15.7154 19.6953 15.7192L14.2178 21.0171C13.9463 21.3156 13.6181 21.5575 13.251 21.726C12.8642 21.9036 12.4441 21.9968 12.0186 21.9995C11.5929 22.0022 11.1712 21.9143 10.7822 21.7417C10.4066 21.5749 10.07 21.3321 9.79199 21.0297L4.30469 15.7182C4.30088 15.7145 4.29672 15.7112 4.29297 15.7075C3.71225 15.1268 3.08324 14.4713 2.53125 13.7251C2.44029 13.6386 2.36688 13.5346 2.31348 13.4194C1.60328 12.3834 1.06318 11.1778 1.00488 9.75631L1 9.50045C1.00002 8.18533 1.39935 6.90049 2.14453 5.81686C2.88969 4.73339 3.94595 3.90175 5.17383 3.43112C6.40185 2.96045 7.74391 2.87313 9.02246 3.18112C10.1436 3.45124 11.1697 4.01396 11.998 4.80807C12.8248 4.00855 13.8525 3.44181 14.9756 3.16842ZM12.9619 16.7749C12.8464 17.1792 12.4898 17.468 12.0703 17.4975C11.6506 17.5269 11.2568 17.2902 11.0859 16.9057L9.77637 13.9604C9.68775 13.9859 9.59499 14.0005 9.5 14.0005H5.42188C5.51604 14.097 5.60999 14.1954 5.70703 14.2924H5.70605L11.2031 19.6137L11.2539 19.6655C11.3484 19.7712 11.4642 19.856 11.5938 19.9135C11.7234 19.9711 11.864 20.0004 12.0059 19.9995C12.1477 19.9986 12.288 19.9678 12.417 19.9087C12.5458 19.8495 12.6608 19.7636 12.7539 19.6567L12.8125 19.5942L18.293 14.2924L18.5781 14.0005H15.5C15.1 14.0005 14.7387 13.7616 14.5811 13.394L14.1885 12.479L12.9619 16.7749ZM3.01367 9.84127C3.0768 10.619 3.35378 11.3253 3.77344 12.0005H8.88184L9.10547 11.5532L9.17871 11.4292C9.36827 11.1563 9.68407 10.9928 10.0225 11.0005C10.4093 11.0092 10.7569 11.2406 10.9141 11.5942L11.7949 13.5756L13.0381 9.22506C13.1543 8.81834 13.5144 8.52926 13.9365 8.5024C14.3587 8.47564 14.7522 8.71712 14.9189 9.10592L16.1592 12.0005H20.2236C20.7052 11.2257 20.9999 10.4114 21 9.50045V9.49557C21.0043 8.58358 20.7307 7.69166 20.2158 6.93893C19.7009 6.18623 18.9687 5.60816 18.1172 5.2817C17.2656 4.95529 16.3344 4.89514 15.4482 5.1108C14.5621 5.32651 13.7626 5.80747 13.1562 6.48873C13.1508 6.49487 13.1453 6.50128 13.1396 6.50729C12.9937 6.66331 12.817 6.78748 12.6211 6.87252C12.474 6.93637 12.3181 6.97732 12.1592 6.99362L12 7.00143C11.7864 7.00143 11.5749 6.95757 11.3789 6.87252C11.183 6.78748 11.0063 6.66331 10.8604 6.50729C10.8559 6.50257 10.852 6.49744 10.8477 6.49264C10.2391 5.81541 9.43886 5.33867 8.55371 5.12545C7.66861 4.91226 6.73977 4.97249 5.88965 5.2983C5.03948 5.62415 4.30789 6.20044 3.79199 6.95065C3.27623 7.70079 3.00002 8.5901 3 9.50045L3.01367 9.84127Z" fill="black"/>
</svg>
