<svg width="24" height="24" viewBox="0 0 24 24" fill="none" xmlns="http://www.w3.org/2000/svg">
<path d="M10 12.9995V19.9995H14V12.9995H10ZM22 18.9995C22 19.7952 21.6837 20.559 21.1211 21.1216C20.5585 21.684 19.7955 21.9995 19 21.9995H5C4.20447 21.9995 3.44149 21.684 2.87891 21.1216C2.3163 20.559 2 19.7952 2 18.9995V9.99951C2 9.56341 2.09478 9.13242 2.27832 8.73682C2.46197 8.34101 2.73024 7.99017 3.06348 7.7085L10.0586 1.7124L10.0635 1.7085C10.605 1.25086 11.291 0.999512 12 0.999512C12.6202 0.999512 13.2229 1.19185 13.7266 1.54639L13.9365 1.7085L13.9414 1.7124L20.9365 7.7085L21.0586 7.81689C21.3356 8.0782 21.561 8.39045 21.7217 8.73682C21.9052 9.13242 22 9.56341 22 9.99951V18.9995ZM16 19.9995H19C19.2651 19.9995 19.5195 19.8949 19.707 19.7075C19.8946 19.52 20 19.2647 20 18.9995V9.99951C20 9.85414 19.9684 9.71048 19.9072 9.57861C19.846 9.44668 19.7566 9.32973 19.6455 9.23584L19.6406 9.23096L12.6455 3.23486V3.23584C12.465 3.08329 12.2363 2.99951 12 2.99951C11.7637 2.99951 11.535 3.08329 11.3545 3.23584L11.3535 3.23486L4.35938 9.23096L4.35449 9.23584C4.24341 9.32973 4.15399 9.44668 4.09277 9.57861C4.03159 9.71048 4 9.85415 4 9.99951V18.9995C4 19.2647 4.10543 19.52 4.29297 19.7075C4.48048 19.8949 4.7349 19.9995 5 19.9995H8V12.9995C8.00013 12.4693 8.21098 11.9604 8.58594 11.5854C8.96099 11.2105 9.46968 10.9995 10 10.9995H14C14.5303 10.9995 15.039 11.2105 15.4141 11.5854C15.789 11.9604 15.9999 12.4693 16 12.9995V19.9995Z" fill="black"/>
</svg>
