<svg width="24" height="24" viewBox="0 0 24 24" fill="none" xmlns="http://www.w3.org/2000/svg">
<path d="M20 19V5C20 4.73478 19.8946 4.48051 19.707 4.29297C19.5195 4.10543 19.2652 4 19 4H15C14.4477 4 14 3.55228 14 3C14 2.44772 14.4477 2 15 2H19C19.7957 2 20.5585 2.3163 21.1211 2.87891C21.6837 3.44151 22 4.20435 22 5V19C22 19.7957 21.6837 20.5585 21.1211 21.1211C20.5585 21.6837 19.7957 22 19 22H15C14.4477 22 14 21.5523 14 21C14 20.4477 14.4477 20 15 20H19C19.2652 20 19.5195 19.8946 19.707 19.707C19.8946 19.5195 20 19.2652 20 19ZM9.29297 6.29297C9.68349 5.90244 10.3165 5.90244 10.707 6.29297L15.707 11.293C16.0976 11.6835 16.0976 12.3165 15.707 12.707L10.707 17.707C10.3165 18.0976 9.68349 18.0976 9.29297 17.707C8.90244 17.3165 8.90244 16.6835 9.29297 16.293L12.5859 13H3C2.44772 13 2 12.5523 2 12C2 11.4477 2.44772 11 3 11H12.5859L9.29297 7.70703C8.90244 7.31651 8.90244 6.68349 9.29297 6.29297Z" fill="black"/>
</svg>
