<svg width="24" height="24" viewBox="0 0 24 24" fill="none" xmlns="http://www.w3.org/2000/svg">
<path d="M21 8.82227L13.5459 13.5703C13.5345 13.5775 13.5234 13.585 13.5117 13.5918C13.0542 13.8576 12.534 13.997 12.0049 13.9971C11.4757 13.9971 10.9556 13.8575 10.498 13.5918C10.4864 13.585 10.4743 13.5776 10.4629 13.5703L3 8.82129V18C3 18.5523 3.44772 19 4 19H20C20.5523 19 21 18.5523 21 18V8.82227ZM21 6C21 5.44771 20.5523 5 20 5H4C3.44772 5 3 5.44772 3 6V6.4502L11.5078 11.8652C11.659 11.9518 11.8306 11.9971 12.0049 11.9971C12.1787 11.997 12.3491 11.9514 12.5 11.8652L21 6.4502V6ZM23 18C23 19.6569 21.6569 21 20 21H4C2.34315 21 1 19.6569 1 18V6C1 4.34315 2.34315 3 4 3H20C21.6569 3 23 4.34315 23 6V18Z" fill="black"/>
</svg>
