<svg width="24" height="24" viewBox="0 0 24 24" fill="none" xmlns="http://www.w3.org/2000/svg">
<path d="M10 9.5C10 7.55228 8.44772 6 6.5 6C4.55228 6 3 7.55228 3 9.5V17C3 17.2652 3.10543 17.5195 3.29297 17.707C3.48051 17.8946 3.73478 18 4 18H9C9.26522 18 9.51949 17.8946 9.70703 17.707C9.89457 17.5195 10 17.2652 10 17V9.5ZM17 11V10H15C14.4477 10 14 9.55228 14 9C14 8.44772 14.4477 8 15 8H18C18.5523 8 19 8.44772 19 9V11C19 11.5523 18.5523 12 18 12C17.4477 12 17 11.5523 17 11ZM7 9C7.55228 9 8 9.44772 8 10C8 10.5523 7.55228 11 7 11H6C5.44772 11 5 10.5523 5 10C5 9.44772 5.44772 9 6 9H7ZM12 17C12 17.3444 11.937 17.6814 11.8242 18H20C20.2652 18 20.5195 17.8946 20.707 17.707C20.8946 17.5195 21 17.2652 21 17V9C21 7.35228 19.6477 6 18 6H10.7529C11.5332 6.9489 12 8.16686 12 9.5V17ZM23 17C23 17.7957 22.6837 18.5585 22.1211 19.1211C21.5585 19.6837 20.7957 20 20 20H4C3.20435 20 2.44151 19.6837 1.87891 19.1211C1.3163 18.5585 1 17.7956 1 17V9.5C1 6.44772 3.44772 4 6.5 4H18C20.7523 4 23 6.24772 23 9V17Z" fill="black"/>
</svg>
