<svg width="24" height="24" viewBox="0 0 24 24" fill="none" xmlns="http://www.w3.org/2000/svg">
<path d="M13.0002 15C13.0002 14.4749 12.8965 13.9549 12.6956 13.4697C12.4946 12.9845 12.1997 12.5433 11.8284 12.1719C11.4569 11.8004 11.0158 11.5057 10.5305 11.3047C10.0453 11.1037 9.52541 11 9.00025 11H5.5022L5.27857 11.0107C4.76209 11.0579 4.27109 11.2647 3.87524 11.6055C3.42274 11.9951 3.12422 12.5337 3.03442 13.124C2.94466 13.7144 3.0697 14.3177 3.38599 14.8242C3.70176 15.3298 4.18754 15.706 4.7561 15.8848C6.44399 16.4092 7.59016 17.5571 8.1145 19.2461L8.19067 19.4561C8.38939 19.9355 8.73355 20.3434 9.177 20.6201C9.68375 20.9362 10.2868 21.0599 10.8772 20.9697C11.4678 20.8795 12.0074 20.5811 12.3967 20.1279C12.7373 19.7315 12.943 19.2395 12.9895 18.7227L13.0002 18.5V15ZM21.0002 16C21.0002 15.4478 20.5524 15.0001 20.0002 15C19.448 15 19.0002 15.4477 19.0002 16C19.0002 16.5523 19.448 17 20.0002 17C20.5524 16.9999 21.0002 16.5522 21.0002 16ZM19.0002 8C19.0002 7.4478 18.5524 7.00014 18.0002 7C17.448 7 17.0002 7.44772 17.0002 8C17.0002 8.55228 17.448 9 18.0002 9C18.5524 8.99986 19.0002 8.5522 19.0002 8ZM12.0002 4C12.0002 3.4478 11.5524 3.00014 11.0002 3C10.448 3 10.0002 3.44772 10.0002 4C10.0002 4.55228 10.448 5 11.0002 5C11.5524 4.99986 12.0002 4.5522 12.0002 4ZM23.0002 16C23.0002 17.6568 21.657 18.9999 20.0002 19C18.3434 19 17.0002 17.6569 17.0002 16C17.0002 14.3431 18.3434 13 20.0002 13C21.657 13.0001 23.0002 14.3432 23.0002 16ZM15.0002 18.5C14.9999 19.5755 14.6141 20.6159 13.9133 21.4316C13.2126 22.2472 12.2428 22.7848 11.1799 22.9473C10.1169 23.1097 9.03079 22.8856 8.11841 22.3164C7.20599 21.7471 6.52677 20.87 6.20532 19.8438L6.20435 19.8408C5.87493 18.7782 5.22107 18.1235 4.16333 17.7949L4.16138 17.7939C3.13564 17.4727 2.25804 16.7955 1.68872 15.8838C1.1194 14.972 0.895307 13.8859 1.05689 12.8232C1.21849 11.7608 1.75522 10.7911 2.56958 10.0898C3.38417 9.38851 4.42339 9.00188 5.49829 9H9.00025C9.78809 9.00003 10.5683 9.15553 11.2961 9.45703C12.024 9.75856 12.6853 10.2007 13.2424 10.7578C13.7995 11.3149 14.2417 11.9762 14.5432 12.7041C14.8447 13.432 15.0002 14.2121 15.0002 15V18.5ZM21.0002 8C21.0002 9.65677 19.657 10.9999 18.0002 11C16.3434 11 15.0002 9.65685 15.0002 8C15.0002 6.34315 16.3434 5 18.0002 5C19.657 5.00014 21.0002 6.34323 21.0002 8ZM14.0002 4C14.0002 5.65677 12.657 6.99986 11.0002 7C9.34339 7 8.00025 5.65685 8.00025 4C8.00025 2.34315 9.34339 1 11.0002 1C12.657 1.00014 14.0002 2.34323 14.0002 4Z" fill="black"/>
</svg>
