<svg width="24" height="24" viewBox="0 0 24 24" fill="none" xmlns="http://www.w3.org/2000/svg">
<path d="M20 11C19.4477 11 19 10.5523 19 10C19 9.37902 18.8558 8.76636 18.5781 8.21094C18.3004 7.65557 17.8971 7.17238 17.4004 6.7998C17.1486 6.61095 17 6.31476 17 6V4.17188C16.8836 4.21304 16.7692 4.26089 16.6582 4.31641C16.2416 4.52469 15.8791 4.82761 15.5996 5.2002L15.2998 5.59961C15.111 5.85142 14.8148 6 14.5 6H11C9.67392 6 8.40253 6.52716 7.46484 7.46484C6.52716 8.40253 6 9.67392 6 11V12C6 12.621 6.14416 13.2336 6.42188 13.7891C6.69956 14.3444 7.1029 14.8276 7.59961 15.2002C7.85142 15.389 8 15.6852 8 16V19H10V17C10 16.4477 10.4477 16 11 16H14C14.5523 16 15 16.4477 15 17V19H17V16C17 15.5694 17.2761 15.1868 17.6846 15.0508C18.0028 14.9447 18.2921 14.7665 18.5293 14.5293C18.7665 14.2921 18.9447 14.0028 19.0508 13.6846L19.1133 13.5371C19.2835 13.2108 19.6233 13 20 13H21V11H20ZM16.0098 9C16.5621 9 17.0098 9.44772 17.0098 10C17.0098 10.5523 16.5621 11 16.0098 11H16C15.4477 11 15 10.5523 15 10C15 9.44772 15.4477 9 16 9H16.0098ZM23 13C23 13.5304 22.7891 14.039 22.4141 14.4141C22.039 14.7891 21.5304 15 21 15H20.6494C20.4603 15.3452 20.2234 15.6633 19.9434 15.9434C19.6634 16.2233 19.345 16.4594 19 16.6484V19C19 19.5304 18.7891 20.039 18.4141 20.4141C18.039 20.7891 17.5304 21 17 21H15C14.4696 21 13.961 20.7891 13.5859 20.4141C13.2109 20.039 13 19.5304 13 19V18H12V19C12 19.5304 11.7891 20.039 11.4141 20.4141C11.039 20.7891 10.5304 21 10 21H8C7.46957 21 6.96101 20.7891 6.58594 20.4141C6.21087 20.039 6 19.5304 6 19V16.4688C5.43772 15.9655 4.97271 15.3613 4.63379 14.6836C4.21722 13.8505 4 12.9315 4 12C3.20435 12 2.44151 11.6837 1.87891 11.1211C1.3163 10.5585 1 9.79565 1 9V8C1 7.44772 1.44772 7 2 7C2.55228 7 3 7.44772 3 8V9L3.00488 9.09863C3.02757 9.32763 3.12883 9.54289 3.29297 9.70703C3.48051 9.89457 3.73478 10 4 10H4.07324C4.28786 8.51329 4.97512 7.12449 6.0498 6.0498C7.36256 4.73705 9.14348 4 11 4H14C14.4656 3.37914 15.0696 2.87545 15.7637 2.52832C16.4579 2.18118 17.2238 2 18 2C18.5523 2 19 2.44772 19 3V5.53027C19.5625 6.03366 20.0272 6.6385 20.3662 7.31641C20.6324 7.84883 20.8164 8.41668 20.915 9H21C21.5304 9 22.039 9.21087 22.4141 9.58594C22.7891 9.96101 23 10.4696 23 11V13Z" fill="black"/>
</svg>
