<svg width="24" height="24" viewBox="0 0 24 24" fill="none" xmlns="http://www.w3.org/2000/svg">
<path d="M16.667 19.9954C17.0509 19.9954 17.4278 20.0915 17.7637 20.2737L17.9053 20.3577L17.9082 20.3586L18.832 20.9534C18.8803 20.9838 18.9371 21.0005 18.9941 21.0002H19V3.00024H18.9941C18.9371 3 18.8813 3.01575 18.833 3.04614L17.9082 3.64087L17.9053 3.64282C17.5355 3.87905 17.1058 4.00415 16.667 4.00415C16.2282 4.00415 15.7985 3.87905 15.4287 3.64282L15.4268 3.64087L14.4941 3.04224C14.446 3.01159 14.3901 2.99536 14.333 2.99536C14.2759 2.99536 14.22 3.01159 14.1719 3.04224L13.2412 3.64087L13.2383 3.64282C12.9147 3.84951 12.5453 3.97103 12.1641 3.99829L12 4.00415C11.5612 4.00415 11.1315 3.87905 10.7617 3.64282L10.7588 3.64087L9.82812 3.04224C9.77999 3.01159 9.72406 2.99536 9.66699 2.99536C9.60992 2.99536 9.554 3.01159 9.50586 3.04224L8.57324 3.64087L8.57129 3.64282C8.20151 3.87905 7.77181 4.00415 7.33301 4.00415C6.89421 4.00415 6.4645 3.87905 6.09473 3.64282L6.0918 3.64087L5.16699 3.04614L5.08984 3.01099C5.06272 3.00322 5.03436 3.00012 5.00586 3.00024H5V21.0002H5.00586C5.06287 21.0005 5.11874 20.9838 5.16699 20.9534L6.0918 20.3586L6.09473 20.3577C6.46456 20.1213 6.89411 19.9954 7.33301 19.9954C7.7169 19.9954 8.09377 20.0915 8.42969 20.2737L8.57129 20.3577L8.57324 20.3586L9.50586 20.9573L9.58301 20.9924C9.61016 21.0004 9.63842 21.0042 9.66699 21.0042C9.69556 21.0042 9.72383 21.0003 9.75098 20.9924L9.82812 20.9573L10.7588 20.3586L10.7617 20.3577C11.1316 20.1213 11.5611 19.9954 12 19.9954C12.3839 19.9954 12.7608 20.0915 13.0967 20.2737L13.2383 20.3577L13.2412 20.3586L14.1709 20.9573H14.1719C14.22 20.988 14.2759 21.0042 14.333 21.0042C14.3901 21.0041 14.446 20.988 14.4941 20.9573L15.4268 20.3586L15.4287 20.3577C15.7985 20.1213 16.2281 19.9954 16.667 19.9954ZM13 15.0002C13.5523 15.0002 14 15.448 14 16.0002C13.9998 16.5524 13.5522 17.0002 13 17.0002H8C7.44782 17.0002 7.00018 16.5524 7 16.0002C7 15.448 7.44772 15.0002 8 15.0002H13ZM16 11.0002C16.5523 11.0002 17 11.448 17 12.0002C16.9998 12.5524 16.5522 13.0002 16 13.0002H8C7.44782 13.0002 7.00018 12.5524 7 12.0002C7 11.448 7.44772 11.0002 8 11.0002H16ZM14 7.00024C14.5523 7.00024 15 7.44796 15 8.00024C14.9998 8.55238 14.5522 9.00024 14 9.00024H8C7.44782 9.00024 7.00018 8.55238 7 8.00024C7 7.44796 7.44772 7.00024 8 7.00024H14ZM21 21.0002C20.9999 21.5306 20.7891 22.0393 20.4141 22.4143C20.0402 22.7881 19.5335 22.998 19.0049 22.9993H19.002L19 23.0002V22.9993C18.5638 23.0006 18.1357 22.8783 17.7666 22.6458L17.7588 22.6409L16.8281 22.0422C16.78 22.0116 16.7241 21.9954 16.667 21.9954C16.6099 21.9954 16.554 22.0116 16.5059 22.0422L15.5732 22.6409L15.5713 22.6428C15.2015 22.879 14.7718 23.0041 14.333 23.0042C13.8942 23.0042 13.4645 22.879 13.0947 22.6428L13.0918 22.6409L12.1611 22.0422C12.113 22.0116 12.0571 21.9954 12 21.9954C11.9429 21.9954 11.887 22.0116 11.8389 22.0422L10.9082 22.6409L10.9053 22.6428C10.5355 22.879 10.1058 23.0042 9.66699 23.0042C9.22819 23.0041 8.79849 22.879 8.42871 22.6428L8.42676 22.6409L7.49414 22.0422C7.446 22.0116 7.39008 21.9954 7.33301 21.9954C7.27594 21.9954 7.22002 22.0116 7.17188 22.0422L6.24121 22.6409L6.2334 22.6458C5.86426 22.8783 5.43619 23.0006 5 22.9993H4.99707L4.99414 23.0002V22.9993C4.4659 22.9977 3.95961 22.7879 3.58594 22.4143C3.21094 22.0393 3.00009 21.5306 3 21.0002V3.00024C3 2.46989 3.21097 1.96124 3.58594 1.58618C3.95963 1.21249 4.46582 1.00277 4.99414 1.00122V1.00024L4.99707 1.00122L5 1.00024V1.00122C5.38135 1.00003 5.75592 1.09279 6.09082 1.27173L6.2334 1.35376L6.24121 1.35864L7.1709 1.95825L7.17188 1.95728C7.22005 1.98798 7.27588 2.00415 7.33301 2.00415C7.39014 2.00415 7.44597 1.98798 7.49414 1.95728L8.42676 1.35864L8.42871 1.35767C8.79854 1.12134 9.2281 0.995363 9.66699 0.995361C10.1059 0.995361 10.5354 1.12134 10.9053 1.35767L10.9082 1.35864L11.8379 1.95825L11.8389 1.95728C11.887 1.98798 11.9429 2.00415 12 2.00415L12.084 1.99243C12.1111 1.98452 12.1371 1.97263 12.1611 1.95728V1.95825L13.0918 1.35864L13.0947 1.35767C13.4646 1.12134 13.8941 0.995361 14.333 0.995361C14.7719 0.995363 15.2015 1.12134 15.5713 1.35767L15.5732 1.35864L16.5059 1.95728L16.583 1.99243C16.6102 2.00035 16.6384 2.00415 16.667 2.00415C16.7241 2.00415 16.78 1.98798 16.8281 1.95728V1.95825L17.7588 1.35864L17.7666 1.35376L17.9092 1.27173C18.2441 1.09279 18.6187 1.00003 19 1.00122V1.00024L19.002 1.00122C19.0031 1.00123 19.0047 1.00024 19.0059 1.00024L19.0049 1.00122C19.5336 1.00251 20.0401 1.21226 20.4141 1.58618C20.789 1.96124 21 2.46989 21 3.00024V21.0002Z" fill="black"/>
</svg>
