<svg width="24" height="24" viewBox="0 0 24 24" fill="none" xmlns="http://www.w3.org/2000/svg">
<path d="M6.00024 21.0002C6.00024 19.8957 6.89567 19.0002 8.00024 19.0002C9.10472 19.0003 10.0002 19.8957 10.0002 21.0002C10.0001 22.1047 9.10466 23.0001 8.00024 23.0002C6.89574 23.0002 6.00035 22.1047 6.00024 21.0002ZM17.0002 21.0002C17.0002 19.8957 17.8957 19.0002 19.0002 19.0002C20.1047 19.0003 21.0002 19.8957 21.0002 21.0002C21.0001 22.1047 20.1047 23.0001 19.0002 23.0002C17.8957 23.0002 17.0003 22.1047 17.0002 21.0002ZM4.05005 1.05005L4.13794 1.05396C4.57151 1.09195 4.93502 1.40886 5.02759 1.84106L5.92896 6.05005H22.0901C22.3934 6.05006 22.6806 6.18751 22.8704 6.42407C23.0601 6.66062 23.1324 6.9708 23.0667 7.26685L21.4163 14.6965L21.4153 14.6956C21.2684 15.362 20.9 15.959 20.3684 16.387C19.8366 16.8151 19.1742 17.0489 18.4915 17.05H8.71021V17.0491C8.02028 17.0593 7.34769 16.8326 6.80591 16.4045C6.2584 15.972 5.87907 15.3621 5.73267 14.6799L4.14868 7.28735C4.14358 7.26642 4.13877 7.24531 4.13501 7.22388L3.24146 3.05005H2.05005C1.49776 3.05005 1.05005 2.60233 1.05005 2.05005C1.05005 1.49776 1.49776 1.05005 2.05005 1.05005H4.05005ZM7.68774 14.26C7.73653 14.4874 7.86362 14.691 8.04614 14.8352C8.2286 14.9792 8.45534 15.0552 8.68774 15.05H18.4885C18.7159 15.0497 18.9364 14.9718 19.1135 14.8293C19.2908 14.6866 19.4142 14.4872 19.4631 14.2649L19.4641 14.2629L20.843 8.05005H6.35767L7.68774 14.26Z" fill="black"/>
</svg>
