<svg width="24" height="24" viewBox="0 0 24 24" fill="none" xmlns="http://www.w3.org/2000/svg">
<path d="M2 18.9998V4.99976C2.00006 4.20419 2.31635 3.44122 2.87891 2.87866C3.4415 2.31612 4.2044 1.99976 5 1.99976H12C12.5522 1.99976 12.9999 2.44758 13 2.99976C13 3.55204 12.5523 3.99976 12 3.99976H5C4.73484 3.99976 4.48049 4.10526 4.29297 4.29272C4.10549 4.48021 4.00006 4.73462 4 4.99976V18.9998C4 19.2649 4.1055 19.5193 4.29297 19.7068C4.48051 19.8943 4.73478 19.9998 5 19.9998H19C19.2652 19.9998 19.5195 19.8943 19.707 19.7068C19.8945 19.5193 20 19.2649 20 18.9998V11.9998C20.0001 11.4476 20.4478 10.9998 21 10.9998C21.5522 10.9998 21.9999 11.4476 22 11.9998V18.9998C22 19.7954 21.6836 20.5583 21.1211 21.1208C20.5585 21.6835 19.7957 21.9998 19 21.9998H5C4.20435 21.9998 3.44152 21.6835 2.87891 21.1208C2.31637 20.5583 2 19.7954 2 18.9998ZM20.9961 4.12476C20.996 3.82745 20.8782 3.54202 20.668 3.33179C20.4577 3.12157 20.1723 3.00366 19.875 3.00366C19.5777 3.00366 19.2923 3.12157 19.082 3.33179L10.0693 12.3464H10.0684C9.94973 12.4649 9.86272 12.6114 9.81543 12.7722L9.23145 14.7673L11.2285 14.1843L11.3467 14.1414C11.4233 14.1081 11.4956 14.0656 11.5615 14.0144L11.6553 13.9314L20.668 4.91772C20.8782 4.70745 20.9961 4.42209 20.9961 4.12476ZM22.9961 4.12476C22.9961 4.95253 22.6673 5.74644 22.082 6.33179L13.0693 15.3464H13.0684C12.7122 15.7022 12.2723 15.9622 11.7891 16.1033L11.79 16.1042L8.91699 16.9441H8.91602C8.65794 17.0194 8.38444 17.0235 8.12402 16.9568C7.86354 16.8901 7.62569 16.7544 7.43555 16.5642C7.24557 16.3742 7.10973 16.137 7.04297 15.8767C6.97623 15.6162 6.98037 15.3419 7.05566 15.0837H7.05664L7.89648 12.2107V12.2097C8.02057 11.7871 8.23577 11.3971 8.52637 11.0681L8.65527 10.9314L17.668 1.91772C18.2533 1.33243 19.0472 1.00366 19.875 1.00366C20.7028 1.00366 21.4967 1.33243 22.082 1.91772C22.6673 2.50303 22.996 3.29701 22.9961 4.12476Z" fill="black"/>
</svg>
