<svg width="24" height="24" viewBox="0 0 24 24" fill="none" xmlns="http://www.w3.org/2000/svg">
<path d="M1 11.1719V4C1 3.20435 1.3163 2.44152 1.87891 1.87891C2.44152 1.3163 3.20435 1 4 1H11.1719L11.4688 1.01465C12.1554 1.08297 12.8008 1.3867 13.293 1.87891L21.999 10.585C22.6368 11.2268 22.9951 12.0951 22.9951 13L22.9912 13.1689C22.9496 14.0124 22.597 14.8132 21.999 15.415L15.415 21.999C14.8132 22.597 14.0124 22.9496 13.1689 22.9912L13 22.9951C12.0951 22.9951 11.2268 22.6368 10.585 21.999L1.87891 13.293C1.3867 12.8008 1.08297 12.1554 1.01465 11.4688L1 11.1719ZM7.5 7C7.22386 7 7 7.22386 7 7.5C7 7.77614 7.22386 8 7.5 8C7.77614 8 8 7.77614 8 7.5C8 7.22386 7.77614 7 7.5 7ZM9 7.5C9 8.32843 8.32843 9 7.5 9C6.67157 9 6 8.32843 6 7.5C6 6.67157 6.67157 6 7.5 6C8.32843 6 9 6.67157 9 7.5ZM3 11.1719L3.00488 11.2705C3.02764 11.4994 3.12884 11.7148 3.29297 11.8789L11.9951 20.5811L12.0996 20.6748C12.3529 20.8811 12.6705 20.9951 13 20.9951L13.1406 20.9883C13.4655 20.9561 13.7712 20.8131 14.0049 20.5811L20.583 14.0029C20.8139 13.7695 20.9562 13.4646 20.9883 13.1406L20.9951 13C20.9951 12.6244 20.8471 12.264 20.583 11.9971L11.8789 3.29297C11.7148 3.12884 11.4994 3.02764 11.2705 3.00488L11.1719 3H4C3.73478 3 3.4805 3.10543 3.29297 3.29297C3.10543 3.4805 3 3.73478 3 4V11.1719Z" fill="black"/>
</svg>
