<svg width="24" height="24" viewBox="0 0 24 24" fill="none" xmlns="http://www.w3.org/2000/svg">
<path d="M12 13V11C12 10.4477 12.4477 10 13 10C13.5523 10 14 10.4477 14 11V13C14 13.5523 13.5523 14 13 14C12.4477 14 12 13.5523 12 13ZM12 7V6H4C3.73478 6 3.4805 6.10543 3.29297 6.29297C3.10543 6.4805 3 6.73478 3 7V8.12793C3.68594 8.3051 4.31864 8.66239 4.82812 9.17188C5.57827 9.92202 6 10.9391 6 12C6 13.0609 5.57827 14.078 4.82812 14.8281C4.3187 15.3376 3.68585 15.6939 3 15.8711V17C3 17.2652 3.10543 17.5195 3.29297 17.707C3.48051 17.8946 3.73478 18 4 18H12V17C12 16.4477 12.4477 16 13 16C13.5523 16 14 16.4477 14 17V18H20C20.2652 18 20.5195 17.8946 20.707 17.707C20.8946 17.5195 21 17.2652 21 17V15.8711C20.3141 15.6939 19.6813 15.3376 19.1719 14.8281C18.4217 14.078 18 13.0609 18 12C18 10.9391 18.4217 9.92202 19.1719 9.17188C19.6814 8.66239 20.3141 8.3051 21 8.12793V7C21 6.73478 20.8946 6.48051 20.707 6.29297C20.5429 6.12883 20.3276 6.02757 20.0986 6.00488L20 6H14V7C14 7.55228 13.5523 8 13 8C12.4477 8 12 7.55228 12 7ZM23 9C23 9.55228 22.5523 10 22 10C21.4696 10 20.961 10.2109 20.5859 10.5859C20.2109 10.961 20 11.4696 20 12L20.0098 12.1973C20.0551 12.6553 20.2577 13.0858 20.5859 13.4141C20.961 13.7891 21.4696 14 22 14C22.5523 14 23 14.4477 23 15V17C23 17.7957 22.6837 18.5585 22.1211 19.1211C21.5585 19.6837 20.7957 20 20 20H4C3.20435 20 2.44151 19.6837 1.87891 19.1211C1.3163 18.5585 1 17.7956 1 17V15C1 14.4477 1.44772 14 2 14C2.53043 14 3.03899 13.7891 3.41406 13.4141C3.78913 13.039 4 12.5304 4 12C4 11.4696 3.78913 10.961 3.41406 10.5859C3.03899 10.2109 2.53043 10 2 10C1.44772 10 1 9.55228 1 9V7C1 6.20435 1.3163 5.44152 1.87891 4.87891C2.44152 4.3163 3.20435 4 4 4H20C20.7957 4 21.5585 4.3163 22.1211 4.87891C22.6837 5.44151 23 6.20435 23 7V9Z" fill="black"/>
</svg>
