<svg width="24" height="24" viewBox="0 0 24 24" fill="none" xmlns="http://www.w3.org/2000/svg">
<path d="M5.00042 12.0003V19.0003C5.00053 19.2654 5.10595 19.5199 5.29338 19.7074C5.48088 19.8946 5.73539 20.0003 6.00042 20.0003H18.0004C18.2655 20.0002 18.52 19.8948 18.7074 19.7074C18.8949 19.5199 19.0003 19.2654 19.0004 19.0003V12.0003H5.00042ZM14.0004 14.0003C14.5525 14.0005 15.0004 14.4482 15.0004 15.0003C15.0002 15.5523 14.5524 16.0001 14.0004 16.0003H10.0004C9.44827 16.0003 9.00064 15.5524 9.00042 15.0003C9.00042 14.448 9.44813 14.0003 10.0004 14.0003H14.0004ZM16.5903 3.83237L15.9018 5.41147C15.9033 5.41383 15.9052 5.41593 15.9067 5.4183C16.2459 5.96075 16.4032 6.59772 16.3549 7.23569C16.3069 7.86965 16.0573 8.47078 15.6449 8.95444L15.6459 8.95541L15.0942 9.61166L15.3539 10.0003H18.1547L20.1596 5.22787V5.2269L16.5903 3.83139V3.83237ZM8.04827 4.02182C7.85405 4.06196 7.67649 4.15961 7.53752 4.30112C7.40663 4.4344 7.31748 4.60169 7.27678 4.78354L7.13811 6.62436C7.10574 7.05529 6.79984 7.41723 6.3803 7.52084L4.6967 7.93588C4.50518 7.99715 4.33608 8.11503 4.21233 8.27377C4.08617 8.43576 4.01274 8.63316 4.00237 8.83822C3.99208 9.04325 4.04551 9.24643 4.15471 9.42026C4.26403 9.5942 4.42433 9.73024 4.6137 9.8099H4.61272L5.07756 10.0003H12.9594C12.7771 9.64582 12.8195 9.21272 13.0805 8.9017L14.1137 7.67026L14.1215 7.66147C14.2605 7.49973 14.3447 7.29698 14.3608 7.08432C14.3768 6.87181 14.3244 6.65954 14.2114 6.47885C14.0983 6.29804 13.9301 6.15804 13.7319 6.07944C13.5336 6.00086 13.3151 5.98813 13.1088 6.04233C13.0898 6.04732 13.0705 6.05116 13.0512 6.05502L11.2309 6.41928C10.8474 6.49588 10.4544 6.34237 10.225 6.02572L9.10002 4.47104C9.09346 4.46196 9.08675 4.45298 9.08049 4.44369C8.9697 4.27906 8.81207 4.15051 8.62835 4.07553C8.4447 4.00064 8.24251 3.98174 8.04827 4.02182ZM21.0004 19.0003C21.0003 19.7958 20.684 20.5589 20.1215 21.1214C19.559 21.6839 18.7959 22.0002 18.0004 22.0003H6.00042C5.20477 22.0003 4.44095 21.684 3.87834 21.1214C3.31589 20.5589 3.00053 19.7958 3.00042 19.0003V12.0062C2.99959 11.7455 3.04955 11.4869 3.14788 11.2455V11.2445C2.87907 11.033 2.64545 10.7776 2.46135 10.4847C2.13336 9.96279 1.97416 9.3523 2.0053 8.73666C2.03645 8.12121 2.25638 7.53034 2.63518 7.04428C3.01417 6.55813 3.53403 6.20028 4.12346 6.01987L4.1762 6.00522L5.19768 5.75229L5.28752 4.55795C5.29028 4.52126 5.29539 4.48474 5.30217 4.44858C5.4119 3.86348 5.69366 3.32448 6.11077 2.89975C6.52786 2.47507 7.06198 2.1841 7.64495 2.06381C8.22783 1.94361 8.83317 1.99911 9.3842 2.22397C9.92456 2.44449 10.388 2.81824 10.7192 3.29819L11.4682 4.33139L12.6586 4.09408C13.1918 3.9652 13.7489 3.98453 14.2699 4.14975L14.7563 3.03354C14.9625 2.55941 15.3443 2.18338 15.8217 1.98471C16.2398 1.81074 16.703 1.78422 17.1352 1.90658L17.3178 1.96811L17.3188 1.96908L20.8891 3.36557H20.8901C21.1382 3.46286 21.3642 3.60932 21.5551 3.79526C21.7461 3.98131 21.8986 4.20395 22.0024 4.44955C22.1061 4.69509 22.1593 4.95938 22.1596 5.22592C22.1599 5.49238 22.1075 5.75657 22.0043 6.00229L20.1655 10.3773C20.2529 10.4401 20.3373 10.5082 20.4145 10.5853C20.7896 10.9604 21.0004 11.4699 21.0004 12.0003V19.0003Z" fill="black"/>
</svg>
