<svg width="24" height="24" viewBox="0 0 24 24" fill="none" xmlns="http://www.w3.org/2000/svg">
<path d="M18 7H6V20C6 20.2652 6.10543 20.5195 6.29297 20.707C6.48051 20.8946 6.73478 21 7 21H17C17.2652 21 17.5195 20.8946 17.707 20.707C17.8946 20.5195 18 20.2652 18 20V7ZM15 4C15 3.73478 14.8946 3.48051 14.707 3.29297C14.5195 3.10543 14.2652 3 14 3H10C9.73478 3 9.4805 3.10543 9.29297 3.29297C9.10543 3.48051 9 3.73478 9 4V5H15V4ZM17 5H21C21.5523 5 22 5.44772 22 6C22 6.55228 21.5523 7 21 7H20V20C20 20.7957 19.6837 21.5585 19.1211 22.1211C18.5585 22.6837 17.7957 23 17 23H7C6.20435 23 5.44151 22.6837 4.87891 22.1211C4.3163 21.5585 4 20.7957 4 20V7H3C2.44772 7 2 6.55228 2 6C2 5.44772 2.44772 5 3 5H7V4C7 3.20435 7.3163 2.44151 7.87891 1.87891C8.44152 1.3163 9.20435 1 10 1H14C14.7956 1 15.5585 1.3163 16.1211 1.87891C16.6837 2.44151 17 3.20435 17 4V5Z" fill="black"/>
</svg>
