<svg width="24" height="24" viewBox="0 0 24 24" fill="none" xmlns="http://www.w3.org/2000/svg">
<path d="M18 13C17.7348 13 17.4805 13.1054 17.293 13.293C17.1054 13.4805 17 13.7348 17 14L17.0049 14.0986C17.0276 14.3276 17.1288 14.5429 17.293 14.707C17.4805 14.8946 17.7348 15 18 15H21V13H18ZM5 8C4.65558 8 4.31859 7.93703 4 7.82422V19C4 19.2652 4.10543 19.5195 4.29297 19.707C4.48051 19.8946 4.73478 20 5 20H20V17H18C17.2043 17 16.4415 16.6837 15.8789 16.1211C15.3867 15.6289 15.0829 14.9835 15.0146 14.2969L15 14C15 13.2043 15.3163 12.4415 15.8789 11.8789C16.4415 11.3163 17.2043 11 18 11H20V8H5ZM5 4C4.73478 4 4.4805 4.10543 4.29297 4.29297C4.10543 4.4805 4 4.73478 4 5L4.00488 5.09863C4.02757 5.32763 4.12883 5.54289 4.29297 5.70703C4.4805 5.89457 4.73478 6 5 6H18V4H5ZM20 6C20.5304 6 21.039 6.21087 21.4141 6.58594C21.7891 6.96101 22 7.46957 22 8V11.2695C22.1498 11.3561 22.2896 11.4615 22.4141 11.5859C22.7891 11.961 23 12.4696 23 13V15C23 15.5304 22.7891 16.039 22.4141 16.4141C22.2897 16.5384 22.1497 16.643 22 16.7295V20C22 20.5304 21.7891 21.039 21.4141 21.4141C21.039 21.7891 20.5304 22 20 22H5C4.20435 22 3.44151 21.6837 2.87891 21.1211C2.3163 20.5585 2 19.7957 2 19V5C2 4.20435 2.3163 3.44152 2.87891 2.87891C3.44152 2.3163 4.20435 2 5 2H18C18.5304 2 19.039 2.21086 19.4141 2.58594C19.7891 2.96101 20 3.46957 20 4V6Z" fill="black"/>
</svg>
